<svg version="1.1"
     baseProfile="full"
     xmlns="http://www.w3.org/2000/svg"
>

  <symbol id="header-inst" viewBox="0 0 25 25">
    <path d="M7.24638 0H12.5H17.7536C19.0217 0 20.1087 0.18116 20.8333 0.543479L20.8333 0.543487C21.558 0.905803 22.2826 1.26812 23.0072 1.99275C23.7319 2.53623 24.0942 3.26087 24.4565 4.16667C24.6377 4.8913 25 5.97826 25 7.24638V12.5V17.7536C25 19.0217 24.8188 20.1087 24.4565 20.8333C24.0942 21.558 23.5507 22.2826 23.0072 23.0072C22.4638 23.7319 21.7391 24.0942 20.8333 24.4565C20.1087 24.6377 19.0217 25 17.7536 25H12.5H7.24638C5.97826 25 4.89131 24.8188 4.16667 24.4565C3.44203 24.0942 2.71739 23.5507 1.99276 23.0072C1.26812 22.4638 0.905802 21.7391 0.543484 20.8333C0.362324 20.1087 0 19.0217 0 17.7536V12.5V7.24638C0 5.97826 0.181165 4.8913 0.543484 4.16667L0.543488 4.16666C0.905805 3.44202 1.26812 2.71739 1.99276 1.99275C2.53624 1.26812 3.26087 0.905798 4.16667 0.543479C4.89131 0.362319 5.97826 0 7.24638 0Z" />
    <path fill-rule="evenodd" clip-rule="evenodd" d="M19.3832 7.42736C20.1079 7.42736 20.8325 6.88388 20.8325 5.97808C20.8325 5.07229 20.1079 4.52881 19.3832 4.52881C18.6586 4.52881 17.934 5.07229 17.934 5.97808C17.934 6.70272 18.6586 7.42736 19.3832 7.42736ZM8.33285 12.6809C8.33285 15.0359 10.1444 16.8475 12.4995 16.8475C14.8546 16.8475 16.6662 15.0359 16.6662 12.6809C16.6662 10.3258 14.8546 8.51421 12.4995 8.51421C10.1444 8.51421 8.33285 10.3258 8.33285 12.6809ZM5.97778 12.6809C5.97778 9.05768 8.87633 6.15913 12.4995 6.15913C16.1227 6.15913 19.0213 9.05768 19.0213 12.6809C19.0213 16.3041 16.1227 19.2026 12.4995 19.2026C8.87633 19.2026 5.97778 16.3041 5.97778 12.6809Z" fill="white"/>
  </symbol>

  <symbol id="header-fb" viewBox="0 0 25 25">
    <path d="M14.4361 25V13.5972H18.262L18.836 9.15195H14.4361V6.31434C14.4361 5.02775 14.7919 4.15095 16.6389 4.15095L18.9909 4.14999V0.174037C18.5841 0.121182 17.188 0 15.563 0C12.1697 0 9.84665 2.07121 9.84665 5.87409V9.15195H6.00912V13.5972H9.84665V25H14.4361Z" />
  </symbol>

  <symbol id="mail-box" viewBox="0 0 56 56" fill="none">
    <rect opacity="0.2" width="56" height="56" rx="7" fill="#819CFF"/>
    <path d="M19.3334 19.3333H36.6667C37.8584 19.3333 38.8334 20.3083 38.8334 21.5V34.5C38.8334 35.6917 37.8584 36.6667 36.6667 36.6667H19.3334C18.1417 36.6667 17.1667 35.6917 17.1667 34.5V21.5C17.1667 20.3083 18.1417 19.3333 19.3334 19.3333Z" fill="#466BC8" stroke="#466BC8" stroke-linecap="round" stroke-linejoin="round"/>
    <path d="M38.8334 21.5L28 29.0833L17.1667 21.5" fill="#466BC8"/>
    <path d="M38.8334 21.5L28 29.0833L17.1667 21.5" stroke="white" stroke-linecap="round" stroke-linejoin="round"/>
  </symbol>

  <symbol id="document" viewBox="0 0 89 81">
    <circle cx="30" cy="43.0082" r="30" fill="#F1F0FC"/>
    <g clip-path="url(#clip0)">
      <path d="M60.944 19.894C60.2152 19.1659 59.2466 18.7643 58.2163 18.7643C57.186 18.7643 56.2174 19.1659 55.4893 19.894C54.7605 20.6228 54.3589 21.5914 54.3589 22.6217C54.3589 23.652 54.7605 24.6206 55.4886 25.3488L62.0597 31.9198C62.7878 32.6479 63.7571 33.0496 64.7874 33.0496C65.8176 33.0496 66.7856 32.6479 67.5144 31.9198L81.5537 17.8805C82.2825 17.1517 82.6835 16.1831 82.6835 15.1534C82.6835 14.1232 82.2825 13.1545 81.5537 12.4258C80.8256 11.697 79.8563 11.296 78.826 11.296C77.7958 11.296 76.8271 11.697 76.099 12.4258L74.5511 13.9736C73.4043 13.0984 72.1458 12.3965 70.8121 11.8887V10.1339C70.8121 8.00684 69.0818 6.27649 66.9553 6.27649H54.8606V4.93738C54.8606 2.21948 52.6493 0.00817871 49.9314 0.00817871H36.4432C33.7253 0.00817871 31.514 2.21948 31.514 4.93738V10.5068C31.514 12.0168 32.7427 13.2455 34.2527 13.2455H52.1219C53.632 13.2455 54.8606 12.0168 54.8606 10.5068V8.6239H66.9547C67.7872 8.6239 68.4647 9.30139 68.4647 10.1339V11.2148C67.4985 11.0195 66.5098 10.9158 65.5094 10.9158C57.2886 10.9158 50.6003 17.604 50.6003 25.8248C50.6003 34.0457 57.2886 40.7339 65.5094 40.7339C66.5122 40.7339 67.501 40.6332 68.4647 40.4397V76.1514C68.4647 76.9839 67.7872 77.6608 66.9547 77.6608H19.4193C18.5868 77.6608 17.9099 76.9839 17.9099 76.1514V10.1339C17.9099 9.30139 18.5868 8.6239 19.4193 8.6239H27.2214C27.8696 8.6239 28.3951 8.09839 28.3951 7.4502C28.3951 6.802 27.8696 6.27649 27.2214 6.27649H19.4193C17.2928 6.27649 15.5625 8.00684 15.5625 10.1339V76.1514C15.5625 78.2778 17.2928 80.0082 19.4193 80.0082H66.9553C69.0818 80.0082 70.8121 78.2778 70.8121 76.1514V39.761C72.681 39.0499 74.4047 37.9647 75.8793 36.5371C78.6674 33.8375 80.2769 30.2181 80.4099 26.3455C80.4319 25.6979 79.9253 25.1547 79.2771 25.1321C78.6338 25.1107 78.0863 25.6167 78.0637 26.2649C77.8763 31.7159 74.2917 36.2167 69.3693 37.7871C69.3015 37.803 69.2356 37.8237 69.1733 37.8512C68.0149 38.1997 66.785 38.3865 65.5094 38.3865C58.5831 38.3865 52.9478 32.7511 52.9478 25.8248C52.9478 18.8986 58.5831 13.2632 65.5094 13.2632C68.1699 13.2632 70.7413 14.1042 72.8745 15.6503L64.7874 23.738L60.944 19.894ZM52.5132 10.5068C52.5132 10.7229 52.338 10.8981 52.1219 10.8981H34.2527C34.0366 10.8981 33.8615 10.7229 33.8615 10.5068V4.93738C33.8615 3.51343 35.0193 2.35559 36.4432 2.35559H49.9314C51.3547 2.35559 52.5132 3.51343 52.5132 4.93738V10.5068ZM77.7592 14.0859C78.0442 13.8003 78.4232 13.6434 78.826 13.6434C79.2295 13.6434 79.6085 13.8009 79.8942 14.0859C80.4825 14.6743 80.4825 15.6326 79.8942 16.2209L65.8542 30.2603C65.5692 30.5453 65.1902 30.7028 64.7867 30.7028C64.3833 30.7028 64.0043 30.5453 63.7192 30.2603L57.1482 23.6892C56.8632 23.4042 56.7063 23.0251 56.7063 22.6217C56.7063 22.2183 56.8632 21.8392 57.1488 21.5542C57.4338 21.2692 57.8129 21.1117 58.2163 21.1117C58.6191 21.1117 58.9988 21.2692 59.2838 21.5542L63.9573 26.2277C64.4156 26.686 65.1584 26.686 65.6168 26.2277L77.7592 14.0859Z" fill="#3D3D3D"/>
      <path d="M47.5059 29.4686H33.2047C32.5565 29.4686 32.0316 29.9941 32.0316 30.6423C32.0316 31.2899 32.5565 31.8154 33.2047 31.8154H47.5059C48.1541 31.8154 48.6796 31.2899 48.6796 30.6423C48.6796 29.9941 48.1541 29.4686 47.5059 29.4686Z" fill="#466BC8"/>
      <path d="M30.9647 17.3538H23.0674C22.4192 17.3538 21.8937 17.8793 21.8937 18.5275C21.8937 19.1757 22.4192 19.7012 23.0674 19.7012H30.9647C31.6129 19.7012 32.1384 19.1757 32.1384 18.5275C32.1384 17.8793 31.6129 17.3538 30.9647 17.3538Z" fill="#466BC8"/>
      <path d="M33.2047 37.2604H47.5059C48.1541 37.2604 48.6796 36.7349 48.6796 36.0867C48.6796 35.4391 48.1541 34.9136 47.5059 34.9136H33.2047C32.5565 34.9136 32.0316 35.4391 32.0316 36.0867C32.0316 36.7349 32.5565 37.2604 33.2047 37.2604Z" fill="#466BC8"/>
      <path d="M52.446 43.7032H33.2047C32.5565 43.7032 32.0316 44.2288 32.0316 44.877C32.0316 45.5251 32.5565 46.0507 33.2047 46.0507H52.446C53.0942 46.0507 53.6197 45.5251 53.6197 44.877C53.6197 44.2288 53.0942 43.7032 52.446 43.7032Z" fill="#466BC8"/>
      <path d="M33.2047 51.4956H42.8257C43.4739 51.4956 43.9988 50.9701 43.9988 50.3219C43.9988 49.6737 43.4739 49.1482 42.8257 49.1482H33.2047C32.5565 49.1482 32.0316 49.6737 32.0316 50.3219C32.0316 50.9701 32.5565 51.4956 33.2047 51.4956Z" fill="#466BC8"/>
      <path d="M33.2047 60.3005H47.5059C48.1541 60.3005 48.6796 59.775 48.6796 59.1268C48.6796 58.4786 48.1541 57.9531 47.5059 57.9531H33.2047C32.5565 57.9531 32.0316 58.4786 32.0316 59.1268C32.0316 59.775 32.5565 60.3005 33.2047 60.3005Z" fill="#466BC8"/>
      <path d="M33.2047 65.7449H52.446C53.0942 65.7449 53.6197 65.2194 53.6197 64.5712C53.6197 63.9236 53.0942 63.3981 52.446 63.3981H33.2047C32.5565 63.3981 32.0316 63.9236 32.0316 64.5712C32.0316 65.2194 32.5565 65.7449 33.2047 65.7449Z" fill="#466BC8"/>
      <path d="M25.5582 28.4512C22.9441 28.4512 20.8176 30.5776 20.8176 33.1918C20.8176 35.8059 22.9441 37.9324 25.5582 37.9324C28.1724 37.9324 30.2988 35.8059 30.2988 33.1918C30.2988 30.5776 28.1724 28.4512 25.5582 28.4512ZM25.5582 35.585C24.2386 35.585 23.165 34.5114 23.165 33.1918C23.165 31.8722 24.2386 30.7986 25.5582 30.7986C26.8778 30.7986 27.9514 31.8722 27.9514 33.1918C27.9514 34.5114 26.8778 35.585 25.5582 35.585Z" fill="#466BC8"/>
      <path d="M25.5582 42.8585C22.9441 42.8585 20.8176 44.9856 20.8176 47.5991C20.8176 50.2133 22.9441 52.3397 25.5582 52.3397C28.1724 52.3397 30.2988 50.2133 30.2988 47.5991C30.2988 44.9856 28.1724 42.8585 25.5582 42.8585ZM25.5582 49.9929C24.2386 49.9929 23.165 48.9193 23.165 47.5997C23.165 46.2795 24.2386 45.2059 25.5582 45.2059C26.8778 45.2059 27.9514 46.2795 27.9514 47.5997C27.9514 48.9193 26.8778 49.9929 25.5582 49.9929Z" fill="#466BC8"/>
      <path d="M25.5582 57.1084C22.9441 57.1084 20.8176 59.2349 20.8176 61.849C20.8176 64.4631 22.9441 66.5896 25.5582 66.5896C28.1724 66.5896 30.2988 64.4631 30.2988 61.849C30.2988 59.2349 28.1724 57.1084 25.5582 57.1084ZM25.5582 64.2422C24.2386 64.2422 23.165 63.1686 23.165 61.849C23.165 60.5294 24.2386 59.4558 25.5582 59.4558C26.8778 59.4558 27.9514 60.5294 27.9514 61.849C27.9514 63.1686 26.8778 64.2422 25.5582 64.2422Z" fill="#466BC8"/>
    </g>
    <defs>
      <clipPath id="clip0">
        <rect width="80" height="80" fill="white" transform="translate(9 0.00817871)"/>
      </clipPath>
    </defs>
  </symbol>

  <symbol id="book" viewBox="0 0 102 102">
    <g clip-path="url(#clip0)">
      <path d="M60.2528 88.1845C60.2528 93.3043 56.1022 97.4544 50.983 97.4544C45.8631 97.4544 41.7131 93.3043 41.7131 88.1845C41.7131 83.0653 45.8631 78.9153 50.983 78.9153C56.1022 78.9153 60.2528 83.0653 60.2528 88.1845Z" fill="#0784FF"/>
      <path d="M88.0612 97.4544L50.983 92.8195L13.9042 97.4544C8.78495 97.4544 4.63492 93.3044 4.63492 88.1846V27.9324C4.63492 22.8126 8.78495 18.6625 13.9042 18.6625L41.7131 14.0276C46.8329 14.0276 50.983 18.1776 50.983 23.2974C50.983 18.1776 55.133 14.0276 60.2528 14.0276L88.0612 18.6625C93.181 18.6625 97.331 22.8126 97.331 27.9324V88.1846C97.331 93.3044 93.181 97.4544 88.0612 97.4544Z" fill="#0784FF"/>
      <path d="M6.95238 83.51C5.67212 83.51 4.63492 84.5472 4.63492 85.8275V88.1845C4.63492 93.3044 8.78496 97.4544 13.9048 97.4544L43.6051 93.7416C45.3424 96.0727 48.0761 97.4482 50.983 97.4544H51.085L51.0962 97.4538H51.1228L51.1357 97.4532H51.1413L51.1599 97.4526H51.1858L51.1976 97.4519H51.205L51.2161 97.4513H51.2353L51.2434 97.4507H51.2539L51.2619 97.4501H51.273L51.2805 97.4495H51.2916L51.299 97.4488H51.3126L51.3176 97.4482L51.3361 97.4476H51.3417L51.3547 97.447H51.3621L51.3732 97.4464L51.3819 97.4457H51.3918L51.3998 97.4451L51.411 97.4445H51.419L51.4295 97.4439L51.4376 97.4433H51.4481L51.4561 97.4427L51.4679 97.442L51.4747 97.4414L51.4901 97.4408H51.4945L51.5118 97.4396H51.518L51.5297 97.4389L51.5371 97.4383L51.5489 97.4377L51.5563 97.4371L51.5674 97.4365L51.5755 97.4359L51.586 97.4352H51.594L51.6046 97.4346L51.6126 97.434L51.6231 97.4328L51.6311 97.4321L51.6429 97.4315L51.6497 97.4309L51.6676 97.4297H51.6713L51.6862 97.4284L51.693 97.4278L51.7048 97.4272L51.7122 97.4266L51.7233 97.4253L51.7313 97.4247L51.7419 97.4241L51.7499 97.4235L51.7598 97.4229L51.7685 97.4222L51.7783 97.421L51.7864 97.4204L51.7981 97.4198L51.8186 97.4179L51.8229 97.4173L51.8414 97.4154H51.8464L51.8668 97.4136L51.8779 97.4123L51.886 97.4111L51.8965 97.4105L51.9045 97.4093L51.9144 97.4086L51.9231 97.408L51.933 97.4068L51.941 97.4055L51.9515 97.4049L51.9596 97.4037L51.9707 97.4025L51.9781 97.4018L51.9911 97.4006L51.9973 97.4L52.014 97.3981L52.0202 97.3969L52.0319 97.3956L52.04 97.395L52.0505 97.3938L52.0579 97.3926L52.0684 97.3913L52.0765 97.3907L52.087 97.3895L52.0944 97.3882L52.1055 97.387L52.1129 97.3858L52.1241 97.3845L52.1315 97.3833L52.1426 97.382L52.1494 97.3814L52.1674 97.379L52.1717 97.3783L52.1853 97.3765L52.1934 97.3759L52.2032 97.3746L52.2119 97.3734L52.2218 97.3721L52.2298 97.3709L52.2404 97.3697L52.2484 97.3684L52.2583 97.3672L52.2663 97.366L52.2762 97.3641L52.2849 97.3635L52.2948 97.3616L52.3022 97.361L52.3146 97.3592L52.3208 97.3579L52.3387 97.3554L52.3436 97.3548L52.356 97.353L52.382 97.3486L52.3925 97.3474L52.4005 97.3456L52.4104 97.3443L52.4185 97.3431L52.4284 97.3412L52.4364 97.34L52.4469 97.3387L52.455 97.3375L52.4655 97.3357L52.4729 97.3344L52.4865 97.3319L52.4908 97.3313L52.5082 97.3282L52.5143 97.3276L52.5261 97.3251L52.5341 97.3239L52.544 97.3221L52.5521 97.3208L52.562 97.319L52.57 97.3177L52.5799 97.3159L52.5879 97.3146L52.5978 97.3128L52.6059 97.3115L52.6158 97.3097L52.6232 97.3084L52.6356 97.306L52.6411 97.3047L52.6591 97.3016L52.6615 97.301L52.6838 97.2973L52.6943 97.2955L52.7017 97.2936L52.7123 97.2917L52.7203 97.2905L52.7302 97.2887L52.7382 97.2868L52.7481 97.2849L52.7562 97.2831L52.7661 97.2812L52.7735 97.28L52.784 97.2775L52.7914 97.2763L52.8019 97.2744L52.8094 97.2726L52.8261 97.2695L52.8341 97.2676L52.844 97.2658L52.852 97.2639L52.8619 97.2621L52.87 97.2602L52.8793 97.2583L52.8873 97.2565L52.8972 97.2546L52.9052 97.2528L52.9151 97.2503L52.9225 97.2491L52.9331 97.2466L52.9405 97.2447L52.951 97.2429L52.9584 97.241L52.9702 97.2386L52.9757 97.2373L52.9931 97.2336L52.9986 97.2324L53.011 97.2293L53.0178 97.228L53.0283 97.2256L53.0456 97.2212L53.0543 97.2194L53.0636 97.2175L53.0716 97.2157L53.0809 97.2132L53.0895 97.2113L53.0982 97.2089L53.1062 97.207L53.1161 97.2045L53.1403 97.199L53.1433 97.1984L53.1582 97.1946L53.165 97.1928L53.1761 97.1903L53.1835 97.1885L53.1928 97.186L53.2015 97.1841L53.2108 97.1817L53.2188 97.1798L53.2281 97.1773L53.2361 97.1755L53.2454 97.173L53.2541 97.1705L53.2621 97.1687L53.2806 97.1637L53.2887 97.1619L53.3054 97.1575L53.3116 97.1557L53.3227 97.1532L53.3307 97.1507L53.34 97.1483L53.3487 97.1458L53.3567 97.1439L53.366 97.1415L53.374 97.139L53.3833 97.1365L53.3914 97.1346L53.4 97.1316L53.4087 97.1297L53.4347 97.1223L53.4445 97.1198L53.4526 97.1173L53.4681 97.113L53.5113 97.1006L53.5194 97.0982L53.5287 97.0957L53.5367 97.0938L53.546 97.0907L53.554 97.0889L53.5633 97.0858L53.5713 97.0833L53.58 97.0808L53.588 97.0784L53.5973 97.0759L53.6054 97.0734L53.6202 97.0691L53.6307 97.066L53.6388 97.0635L53.6474 97.061L53.6561 97.058L53.6641 97.0555L53.6734 97.053L53.6814 97.0505L53.6901 97.0481L53.6981 97.0456L53.7408 97.0314L53.7482 97.0295L53.7581 97.0264L53.7618 97.0252L53.7847 97.0178L53.7909 97.0159L53.8076 97.0103L53.8163 97.0072L53.8243 97.0048L53.8336 97.0017L53.8404 96.9992L53.8503 96.9961L53.9059 96.9776C53.9183 96.9732 53.9307 96.9689 53.9424 96.9646L53.9499 96.9627L53.9591 96.959L53.9659 96.9565L53.9758 96.9534L53.9826 96.951L53.9925 96.9472L53.9993 96.9454L54.0086 96.9417L54.0327 96.9336L54.042 96.9299L54.0488 96.9275L54.0587 96.9237L54.0624 96.9225L54.0884 96.9132L54.0909 96.9126L54.1014 96.9089L54.1076 96.9064L54.1175 96.9027L54.1236 96.9009L54.1335 96.8972L54.1403 96.8947L54.1502 96.891L54.157 96.8885L54.1669 96.8848L54.1737 96.8823L54.183 96.8786L54.1898 96.8761L54.1997 96.8724L54.2059 96.8699C54.2195 96.865 54.2325 96.86 54.2455 96.8551L54.2473 96.8545L54.2591 96.8501L54.264 96.8477L54.2746 96.844L54.2801 96.8415L54.2906 96.8378L54.2962 96.8353L54.3067 96.831L54.3129 96.8291L54.3228 96.8248L54.329 96.8223L54.3395 96.8186L54.3438 96.8167L54.3556 96.8124L54.3587 96.8112C54.3735 96.805 54.3877 96.7994 54.4026 96.7932L54.415 96.7883L54.4193 96.7871L54.4304 96.7821L54.4354 96.7803L54.4459 96.7759L54.4514 96.7735L54.462 96.7691L54.4675 96.7666L54.4787 96.7623L54.483 96.7605L54.4947 96.7555L54.4978 96.7543C54.517 96.7462 54.5362 96.7382 54.5553 96.7295L54.5566 96.7289L54.569 96.724L54.5733 96.7221L54.5844 96.7172L54.5887 96.7153L54.5999 96.7104L54.6048 96.7085L54.616 96.7036L54.6203 96.7017L54.6314 96.6968L54.6364 96.6949L54.6475 96.69L54.65 96.6887C54.6691 96.6807 54.6877 96.672 54.7063 96.664L54.7094 96.6627L54.7211 96.6572L54.7254 96.6553L54.7366 96.6504L54.7409 96.6485L54.752 96.643L54.7564 96.6411L54.7681 96.6355L54.7712 96.6343L54.7836 96.6287L54.786 96.6275C54.8102 96.6164 54.8349 96.6052 54.8584 96.5941L54.8596 96.5935L54.8726 96.5873L54.8757 96.5861L54.8881 96.5799L54.8912 96.5786L54.9029 96.5731L54.9066 96.5712L54.9184 96.5656L54.9215 96.5644L54.9339 96.5582L54.9357 96.557C54.9598 96.5458 54.984 96.5335 55.0081 96.5217L55.0093 96.5211L55.0223 96.5149L55.0371 96.5075L55.0402 96.5063L55.052 96.5001L55.0693 96.4914C55.0984 96.4772 55.1268 96.4624 55.1553 96.4481L55.1578 96.4469L55.1695 96.4407L55.1732 96.4389L55.185 96.4327L55.1874 96.4314L55.2004 96.4246L55.2023 96.424L55.2159 96.4166C55.24 96.4036 55.2641 96.3912 55.2889 96.3782L55.3025 96.3708L55.3037 96.3702L55.3167 96.3628L55.3186 96.3622L55.3322 96.3547L55.3328 96.3541L55.347 96.3467C55.386 96.3257 55.4243 96.3046 55.4627 96.283C55.5097 96.2564 55.5567 96.2292 55.6031 96.202C56.7052 95.5519 57.072 94.1313 56.4219 93.0285C55.7738 91.9301 54.3593 91.5615 53.2571 92.2047C52.5682 92.611 51.7827 92.8232 50.983 92.8207C49.5302 92.8145 48.1658 92.1206 47.3048 90.9504C46.306 89.6268 44.6757 88.9378 43.0305 89.1438L13.6648 92.8145C11.2026 92.684 9.27232 90.6511 9.26985 88.1858V85.8281C9.26985 84.5472 8.23203 83.51 6.95238 83.51ZM64.1474 89.8124C62.8672 89.8142 61.8312 90.8527 61.8331 92.1329C61.8343 93.3 62.7039 94.284 63.8617 94.4294L77.743 96.1642L77.7492 96.1649L77.8364 96.176L77.8568 96.1785L78.5798 96.2688L78.5934 96.2706L78.6138 96.2731L78.6206 96.2737L78.6639 96.2793L78.6961 96.2836L78.8092 96.2972L78.842 96.3015L79.4772 96.3807L79.5044 96.3844L79.5378 96.3888L79.5576 96.3912L79.5768 96.3937L79.5817 96.3943L80.0821 96.4568L80.0932 96.458L80.6196 96.5242H80.6208L80.747 96.5397L80.7569 96.5409L80.8435 96.552L80.8564 96.5533L81.0135 96.5731L81.0339 96.5755L81.0506 96.578L81.2393 96.6015H81.2418L81.3024 96.6089L81.3061 96.6096L81.3351 96.6133L81.3389 96.6139L81.3982 96.6213L81.41 96.6225L81.4285 96.625L81.4335 96.6256L81.5207 96.6361L81.559 96.6411L81.6135 96.6479L81.6258 96.6498L81.6512 96.6528L81.666 96.6547L81.744 96.6646L81.7563 96.6658L81.7724 96.6677L81.8244 96.6745L81.8411 96.6764L81.8782 96.6807L81.9951 96.6955L82.0142 96.698L82.0223 96.6986L82.0662 96.7042L82.0916 96.7073L82.1367 96.7135L82.1546 96.7153L82.1583 96.7159L82.2443 96.7264L82.2616 96.7289L82.2678 96.7295L82.2901 96.7326L82.339 96.7388L82.3835 96.7438L82.4775 96.7555L82.5028 96.7592L82.527 96.7617L82.5647 96.7666L82.5789 96.7685L82.6173 96.7728L82.634 96.7753L82.6847 96.7815L82.6989 96.7833L82.8102 96.797L82.8684 96.8044L82.8715 96.805L82.9216 96.8112L82.937 96.813L82.9822 96.8186L82.9908 96.8198L83.0428 96.8266L83.0514 96.8273L83.3069 96.8594L83.3112 96.86L83.3316 96.8625L83.3452 96.8644L83.3799 96.8687L83.4065 96.8718L83.4368 96.8755L83.4497 96.8774L83.5023 96.8835L83.5203 96.886L83.6211 96.8984L83.6248 96.899L83.8672 96.9293L83.952 96.9398L83.9631 96.9417L84.0045 96.9466L84.0163 96.9479L84.0342 96.9503L84.101 96.959L84.114 96.9602L84.122 96.9615L84.1511 96.9646L84.2519 96.9776L84.2723 96.98L84.3057 96.9844L84.3298 96.9874L84.3428 96.9887L84.3812 96.9936L84.4443 97.0017L84.4795 97.006L84.5006 97.0085L84.6954 97.0332H84.6985L84.897 97.058H84.8989L84.9922 97.0697L85.0015 97.0709L85.0182 97.0734L85.0776 97.0808L85.0838 97.0815L85.0986 97.0833L85.1883 97.0944L85.192 97.0951L85.4679 97.1291L85.4765 97.1303L85.6528 97.1526L85.8216 97.1736L85.8346 97.1755L85.8489 97.1767L85.8501 97.1773C86.2434 97.2262 86.5929 97.2701 86.8922 97.3072L86.8966 97.3078L87.019 97.3233L87.0234 97.3239L87.037 97.3258H87.0376C87.1965 97.3456 87.3382 97.3635 87.4631 97.379H87.4637L87.789 97.4192L87.7909 97.4198L88.0612 97.4538H88.1478L88.157 97.4532H88.1954L88.2096 97.4526H88.243L88.2486 97.4519H88.2746L88.2807 97.4513H88.2968L88.3061 97.4507H88.3216L88.329 97.4501H88.3444L88.3568 97.4495H88.3599L88.376 97.4488H88.3797L88.3914 97.4482H88.397L88.4075 97.4476H88.4131L88.423 97.447H88.4292L88.4385 97.4464H88.4453L88.4539 97.4457H88.4613L88.47 97.4451H88.4768L88.4867 97.4445L88.4929 97.4439H88.5046L88.5083 97.4433L88.5238 97.4427H88.5281L88.5399 97.442L88.5448 97.4414H88.5547L88.5615 97.4408L88.5708 97.4402H88.5776L88.5863 97.4396L88.5937 97.4389L88.6023 97.4383H88.6092L88.6178 97.4377L88.6246 97.4371L88.6345 97.4365H88.6401L88.6525 97.4352H88.6555L88.6716 97.4346L88.6741 97.434L88.6871 97.4334L88.692 97.4328L88.7025 97.4321L88.7087 97.4315L88.7186 97.4309L88.7248 97.4303L88.7341 97.4297H88.7403L88.7502 97.429L88.7564 97.4284L88.7663 97.4278L88.7712 97.4272L88.7823 97.426H88.7873L88.8003 97.4247H88.8027L88.8343 97.4222H88.8386L88.8491 97.421L88.8559 97.4204L88.8652 97.4198L88.8714 97.4192L88.8813 97.4185L88.8869 97.4179L88.8968 97.4173L88.9023 97.4167L88.9122 97.4154H88.9184L88.9283 97.4142L88.945 97.4123H88.9493L88.9802 97.4093H88.984L88.9963 97.408L89 97.4074L89.0118 97.4062L89.0167 97.4055L89.0279 97.4043L89.0322 97.4037L89.0427 97.4031L89.0483 97.4025L89.0588 97.4012L89.0637 97.4006L89.0749 97.3994L89.0792 97.3987L89.0916 97.3975H89.0947L89.1089 97.3956H89.1107L89.1262 97.3938H89.1281L89.1417 97.3919L89.146 97.3913L89.1571 97.3901L89.1621 97.3895L89.1726 97.3882L89.1782 97.3876L89.1881 97.3864L89.1936 97.3858L89.2035 97.3845L89.2091 97.3839L89.2196 97.3827L89.2245 97.382L89.2363 97.3808L89.24 97.3802L89.2716 97.3759L89.2864 97.374H89.2901L89.3025 97.3721L89.3068 97.3715L89.3173 97.3703L89.3223 97.3697L89.3328 97.3678L89.3383 97.3672L89.3489 97.366L89.3532 97.3653L89.3643 97.3635L89.3693 97.3629L89.381 97.3616L89.3841 97.361C89.4002 97.3585 89.4157 97.3567 89.4311 97.3542L89.4336 97.3536L89.4466 97.3517L89.4503 97.3511L89.462 97.3493L89.4658 97.3486L89.4775 97.3474L89.4818 97.3468L89.4923 97.3449L89.4973 97.3443L89.5084 97.3425L89.5128 97.3418L89.5251 97.34L89.5276 97.3394C89.5431 97.3369 89.5591 97.3344 89.5746 97.3313H89.5765L89.5895 97.3289L89.6043 97.3264L89.6092 97.3258L89.6198 97.3239L89.6253 97.3233L89.6352 97.3214L89.6402 97.3208L89.6507 97.319L89.6562 97.3177L89.6668 97.3159L89.6711 97.3152L89.6835 97.3134L89.6866 97.3128L89.7175 97.3072L89.7187 97.3066L89.7323 97.3041L89.7366 97.3035L89.7472 97.3016L89.7521 97.3004L89.7626 97.2985L89.7676 97.2979L89.7781 97.2961L89.783 97.2948L89.7942 97.293L89.7985 97.2924L89.8102 97.2899L89.8133 97.2893L89.827 97.2868L89.8288 97.2862L89.8597 97.2806L89.8604 97.28L89.8746 97.2775L89.8783 97.2769L89.89 97.2744L89.8937 97.2738L89.9055 97.2713L89.9092 97.2707L89.921 97.2682L89.924 97.2676L89.9358 97.2651L89.9395 97.2645L89.9525 97.2621L89.9544 97.2614L89.9686 97.2583H89.9698L90.0007 97.2515H90.0014L90.0162 97.2485L90.0181 97.2478L90.0311 97.2454L90.0348 97.2441L90.0465 97.2416L90.0496 97.241L90.0607 97.2386L90.0657 97.2379L90.0762 97.2355L90.0805 97.2348L90.0923 97.2318L90.0954 97.2311L90.1084 97.2287L90.1102 97.228L90.1251 97.2243H90.1257L90.1566 97.2175L90.1585 97.2169L90.1714 97.2138L90.1745 97.2132L90.1863 97.2107L90.1906 97.2095L90.2011 97.207L90.2055 97.2058L90.216 97.2033L90.2209 97.2021L90.2314 97.1996L90.2358 97.1984L90.2469 97.1959L90.2506 97.1953C90.2655 97.1915 90.2809 97.1878 90.2958 97.1841L90.2976 97.1835L90.3106 97.1804L90.3143 97.1792L90.3254 97.1767L90.3298 97.1755L90.3403 97.173L90.3452 97.1718L90.3558 97.1687L90.3601 97.168L90.3706 97.165L90.3749 97.1637L90.3867 97.1612L90.3892 97.16L90.4034 97.1563H90.404L90.4349 97.1483H90.4355L90.4498 97.1445L90.4522 97.1439L90.464 97.1408L90.4683 97.1396L90.4788 97.1365L90.4832 97.1353L90.4937 97.1328L90.498 97.1316L90.5091 97.1285L90.5135 97.1272L90.524 97.1241L90.5277 97.1235L90.5413 97.1198L90.5425 97.1192L90.5728 97.1105H90.5741L90.5877 97.1068L90.5908 97.1056L90.6019 97.1025L90.6062 97.1013L90.6161 97.0982L90.6217 97.0969L90.6316 97.0938L90.6359 97.0926L90.6471 97.0895L90.6508 97.0883L90.6625 97.0846L90.665 97.0839L90.6774 97.0802L90.6798 97.0796C90.6947 97.0753 90.7095 97.0709 90.7244 97.0666L90.7268 97.066L90.7386 97.0623L90.7429 97.061L90.7541 97.058L90.7572 97.0567L90.7683 97.0536L90.772 97.0524L90.7837 97.0487L90.7862 97.0481L90.7986 97.0443L90.8011 97.0431L90.8153 97.0394L90.8159 97.0388C90.8301 97.0345 90.845 97.0295 90.8598 97.0252L90.8784 97.019L90.8889 97.0159L90.8932 97.014L90.9037 97.011L90.9081 97.0097L90.918 97.006L90.9223 97.0048L90.9328 97.0011L90.9371 96.9998L90.9476 96.9961L90.9514 96.9955L90.9643 96.9912L90.9656 96.9905L90.9804 96.9856H90.981L90.9947 96.9806L90.9977 96.98L91.0095 96.9757L91.0138 96.9745L91.0237 96.9714L91.0287 96.9695L91.0435 96.9646L91.0522 96.9615L91.0577 96.9596L91.0664 96.9565L91.072 96.9547L91.0806 96.9516L91.0862 96.9497L91.0942 96.9466L91.101 96.9442L91.1128 96.9404L91.119 96.938L91.1289 96.9349L91.1338 96.933L91.1431 96.9293L91.1493 96.9275L91.1567 96.925L91.1635 96.9225L91.1715 96.9194L91.1777 96.9176L91.1858 96.9145L91.1919 96.9126L91.2 96.9095L91.2062 96.907L91.2142 96.904L91.2204 96.9021L91.2297 96.899L91.234 96.8972L91.2625 96.8866L91.2668 96.8848L91.2761 96.8817L91.2822 96.8792L91.2903 96.8761L91.2965 96.8743L91.3045 96.8712L91.3107 96.8687L91.3181 96.8662L91.3249 96.8631L91.3317 96.8607L91.3391 96.8582L91.3528 96.8532L91.3608 96.8501L91.367 96.8477L91.3756 96.844L91.3831 96.8415L91.3948 96.8372L91.4004 96.8347L91.4084 96.8316L91.4146 96.8291L91.4226 96.8266L91.4288 96.8236L91.4369 96.8211L91.4431 96.8186L91.4505 96.8155L91.4573 96.813L91.4641 96.8099L91.4709 96.8075L91.4783 96.8044L91.4851 96.8019L91.4919 96.7988L91.4987 96.7963L91.5055 96.7932L91.5173 96.7889L91.5259 96.7852L91.534 96.7821L91.5395 96.7796L91.5482 96.7765L91.5531 96.7741L91.5612 96.771L91.5667 96.7685L91.5754 96.7654L91.5804 96.7629L91.5884 96.7598L91.594 96.7574L91.6026 96.7543L91.6076 96.7518L91.6156 96.7487L91.6212 96.7462L91.6298 96.7425L91.6335 96.7413C91.6441 96.7363 91.654 96.7326 91.6645 96.7277L91.67 96.7258L91.6781 96.7221L91.683 96.7203L91.6917 96.7166L91.6966 96.7141L91.7053 96.7104L91.7102 96.7085L91.7189 96.7048L91.7238 96.7029L91.7368 96.6974L91.7461 96.693L91.7498 96.6918L91.7597 96.6875L91.7616 96.6862C91.7783 96.6794 91.795 96.672 91.8117 96.6646L91.8228 96.6597L91.8253 96.6584L91.8358 96.6535L91.8383 96.6528L91.8488 96.6479L91.8519 96.6467L91.8618 96.6417L91.8649 96.6405L91.8748 96.6355L91.8772 96.6349C91.902 96.6232 91.9273 96.612 91.9521 96.6003H91.9527L91.9644 96.5947L91.9768 96.5885L91.9787 96.5879L91.9904 96.5823H91.991C92.0207 96.5681 92.0498 96.5545 92.0795 96.5403L92.0918 96.5341H92.0925L92.1042 96.5285L92.1055 96.5279C93.2738 95.9595 94.3103 95.153 95.1478 94.1597C95.9697 93.1782 95.8399 91.7167 94.8583 90.8947C93.8805 90.0765 92.4252 90.202 91.602 91.1749C90.7757 92.1546 89.5802 92.7477 88.2999 92.8133L64.4369 89.8303C64.341 89.818 64.2439 89.8124 64.1474 89.8124Z" fill="#005EEE"/>
      <path d="M9.26986 14.0276H92.6961C97.8159 14.0276 101.966 18.1776 101.966 23.2974V78.9154C101.966 84.0346 97.8159 88.1846 92.6961 88.1846H9.26986C4.15004 88.1846 0 84.0346 0 78.9154V23.2974C0 18.1776 4.15004 14.0276 9.26986 14.0276Z" fill="#B8C2FF"/>
      <path d="M95.0136 18.6625C98.8531 18.6625 101.966 21.7753 101.966 25.6149V76.5978C101.966 80.4374 98.8531 83.5502 95.0136 83.5502C91.174 83.5502 88.0612 80.4374 88.0612 76.5978V25.6149C88.0612 21.7753 91.174 18.6625 95.0136 18.6625Z" fill="#7388FF"/>
      <path d="M50.983 88.1845L12.982 84.3845C8.24316 83.9108 4.63492 79.9234 4.63492 75.1611V19.6353C4.63492 14.5161 8.78495 10.3661 13.9042 10.3661C14.2122 10.3661 14.5202 10.3816 14.8269 10.4119L50.983 14.0275V88.1845Z" fill="#DFE5FF"/>
      <path d="M50.983 88.1845L88.9839 84.3845C93.7222 83.9108 97.331 79.9234 97.331 75.1611V19.6353C97.331 14.5161 93.181 10.3661 88.0612 10.3661C87.7532 10.3661 87.4458 10.3816 87.139 10.4119L50.983 14.0275V88.1845Z" fill="#CCD4FF"/>
      <path d="M88.0612 14.0276C85.5019 14.0276 83.4268 16.1026 83.4262 18.6619C83.4262 18.6625 83.4262 18.6625 83.4262 18.6625V74.2804H64.8871C62.3279 74.281 60.2535 76.3573 60.2541 78.9172C60.2553 81.4753 62.3291 83.549 64.8871 83.5497H83.4262C88.546 83.5497 92.6961 79.3996 92.6961 74.2804V18.6625C92.6961 16.1026 90.6211 14.0276 88.0618 14.0276C88.0618 14.0276 88.0618 14.0276 88.0612 14.0276Z" fill="#B8C2FF"/>
      <path d="M50.983 9.39255L22.0607 4.71928C19.8391 4.44158 17.6132 5.20541 16.0299 6.78873C14.6686 8.15002 13.9042 9.99558 13.9042 11.9197V70.6183C13.9042 75.3416 17.4561 79.3098 22.1504 79.8312L50.983 83.5496V9.39255Z" fill="#EFF2FF"/>
      <path d="M50.983 9.39261L79.9052 4.68037C82.1268 4.40267 84.3527 5.16588 85.9361 6.74982C87.2973 8.11049 88.0618 9.95605 88.0618 11.8808V69.7024C88.0618 74.4257 84.5098 78.3933 79.8155 78.9153L50.983 83.5503V9.39261Z" fill="#DFE5FF"/>
      <path d="M55.6179 9.39258C58.1772 9.39258 60.2528 11.4676 60.2528 14.0275V78.9153C60.2528 81.4746 58.1778 83.5496 55.6179 83.5496C53.058 83.5496 50.983 81.4746 50.983 78.9153V14.0275C50.983 11.4676 53.058 9.39258 55.6179 9.39258Z" fill="#CCD4FF"/>
      <path d="M53.3004 14.0276C54.5801 14.0276 55.6179 15.0654 55.6179 16.3451V76.5979C55.6179 77.8775 54.5801 78.9154 53.3004 78.9154C52.0208 78.9154 50.983 77.8775 50.983 76.5979V16.3451C50.983 15.0654 52.0208 14.0276 53.3004 14.0276Z" fill="#A4B1FF"/>
      <path d="M44.0331 55.7413C43.8797 55.7413 43.7263 55.7265 43.576 55.6955L20.402 51.0606C19.1471 50.8095 18.3331 49.5886 18.5849 48.3337C18.836 47.0788 20.0569 46.2655 21.3118 46.5166L44.4858 51.1515C45.7407 51.4026 46.554 52.6241 46.3029 53.8784C46.0864 54.9608 45.1364 55.7401 44.0331 55.7413Z" fill="#6BA7FF"/>
      <path d="M44.0331 41.8408C43.8797 41.8414 43.7263 41.826 43.576 41.7957L20.402 37.1607C19.1471 36.9096 18.3331 35.6887 18.5849 34.4338C18.836 33.1789 20.0569 32.365 21.3118 32.6167L44.4858 37.2517C45.7407 37.5028 46.554 38.7236 46.3029 39.9785C46.0864 41.0603 45.1364 41.8396 44.0331 41.8408Z" fill="#6BA7FF"/>
      <path d="M44.0331 27.9323C43.8797 27.9323 43.7263 27.9175 43.576 27.8866L31.9887 25.5697C30.7338 25.318 29.9205 24.0971 30.1716 22.8422C30.4072 21.5978 31.6077 20.7802 32.8521 21.0158C32.8676 21.0189 32.883 21.022 32.8991 21.0251L44.4858 23.3425C45.7407 23.5937 46.5546 24.8145 46.3029 26.0695C46.0864 27.1518 45.1364 27.9311 44.0331 27.9323Z" fill="#6BA7FF"/>
      <path d="M44.0331 69.6478C43.8797 69.6485 43.7263 69.6336 43.576 69.6027L20.402 64.9684C19.1471 64.7154 18.335 63.4933 18.5879 62.239C18.8403 60.9866 20.0587 60.1745 21.3118 60.4237L44.4858 65.0587C45.7401 65.3098 46.554 66.5307 46.3029 67.7856C46.0864 68.8679 45.1364 69.6472 44.0331 69.6478Z" fill="#6BA7FF"/>
      <path d="M57.9329 55.7413C56.6532 55.7401 55.6167 54.701 55.6179 53.4214C55.6191 52.318 56.3984 51.368 57.4801 51.1515L80.6542 46.5166C81.9091 46.2655 83.13 47.0788 83.3811 48.3337C83.6322 49.5886 82.8189 50.8095 81.564 51.0606L58.3899 55.6955C58.2396 55.7265 58.0863 55.7413 57.9329 55.7413Z" fill="#6BA7FF"/>
      <path d="M57.9329 41.8408C56.6532 41.8395 55.6167 40.8011 55.6179 39.5208C55.6191 38.4174 56.3984 37.4674 57.4802 37.251L80.6542 32.616C81.9091 32.3649 83.13 33.1789 83.3817 34.4338C83.6328 35.6881 82.8189 36.9096 81.564 37.1607L58.3899 41.7956C58.2397 41.8259 58.0863 41.8414 57.9329 41.8408Z" fill="#6BA7FF"/>
      <path d="M57.9329 27.9323C56.6532 27.9311 55.6167 26.892 55.6179 25.6124C55.6191 24.509 56.3984 23.559 57.4801 23.3426L80.6542 18.7076C81.9091 18.4565 83.13 19.2698 83.3811 20.5247C83.6322 21.7796 82.8189 23.0005 81.564 23.2523L58.3899 27.8866C58.2396 27.9175 58.0863 27.9323 57.9329 27.9323Z" fill="#6BA7FF"/>
      <path d="M57.9329 69.6479C56.6532 69.6467 55.6167 68.6082 55.6179 67.3286C55.6191 66.2252 56.3984 65.2752 57.4802 65.0587L80.6542 60.4238C81.9097 60.1739 83.1294 60.9891 83.3792 62.244C83.6285 63.4971 82.8164 64.7155 81.564 64.9678L58.3899 69.6028C58.2397 69.6337 58.0863 69.6485 57.9329 69.6479Z" fill="#6BA7FF"/>
      <path d="M27.8089 18.6625C27.8089 21.2224 25.7339 23.2974 23.174 23.2974C20.6141 23.2974 18.5391 21.2224 18.5391 18.6625C18.5391 16.1026 20.6141 14.0276 23.174 14.0276C25.7339 14.0276 27.8089 16.1026 27.8089 18.6625Z" fill="#6BA7FF"/>
    </g>
    <defs>
      <clipPath id="clip0">
        <rect width="102" height="102" fill="white"/>
      </clipPath>
    </defs>
  </symbol>

  <symbol id="target" viewBox="0 0 102 102">
    <path d="M51 102C79.1665 102 102 79.1665 102 51C102 22.8335 79.1665 0 51 0C22.8335 0 0 22.8335 0 51C0 79.1665 22.8335 102 51 102Z" fill="#6BA7FF"/>
    <path d="M51 89.25C29.9625 89.25 12.75 72.0375 12.75 51C12.75 29.9625 29.9625 12.75 51 12.75C72.0375 12.75 89.25 29.9625 89.25 51C89.25 72.0375 72.0375 89.25 51 89.25Z" fill="#F2F2F2"/>
    <path d="M51 76.5C36.975 76.5 25.5 65.025 25.5 51C25.5 36.975 36.975 25.5 51 25.5C65.025 25.5 76.5 36.975 76.5 51C76.5 65.025 65.025 76.5 51 76.5Z" fill="#2681FF"/>
    <path d="M51 63.75C43.9875 63.75 38.25 58.0125 38.25 51C38.25 43.9875 43.9875 38.25 51 38.25C58.0125 38.25 63.75 43.9875 63.75 51C63.75 58.0125 58.0125 63.75 51 63.75Z" fill="#CDD6E0"/>
    <path d="M51 63.75C43.9875 63.75 38.25 58.0125 38.25 51C38.25 43.9875 43.9875 38.25 51 38.25C58.0125 38.25 63.75 43.9875 63.75 51C63.75 58.0125 58.0125 63.75 51 63.75Z" fill="#C4C5F3"/>
    <path opacity="0.2" d="M101.575 57.375C100.725 63.75 98.8125 69.7001 95.8376 75.225L93.075 74.1626L89.4626 66.5126L51.2126 52.7001C49.5126 52.0626 48.6626 50.1501 49.3001 48.4502C49.9376 46.7503 51.8501 45.9002 53.55 46.5377L91.8 60.3501L99.45 56.7377L101.575 57.375Z" fill="#334A5E"/>
    <path d="M85.8499 20.6126L54.6124 51.8501C53.3374 53.1251 51.2124 53.1251 49.9374 51.8501C48.6624 50.5751 48.6624 48.45 49.9374 47.175L81.3874 16.1501C82.6624 14.8751 84.7875 14.8751 86.0625 16.1501C87.1249 17.4251 87.1249 19.3376 85.8499 20.6126Z" fill="#40596B"/>
    <path d="M88.8251 13.1749L78.8374 23.1626V9.98743L88.8251 0V13.1749Z" fill="#2E6ADB"/>
    <path d="M92.0126 23.1626L102 13.1749H88.8251L78.8374 23.1626H92.0126Z" fill="#1E56C0"/>
  </symbol>

  <symbol id="flag" viewBox="0 0 102 102">
    <g clip-path="url(#clip0)">
      <path d="M82.8748 102C82.4182 102 81.9604 101.895 81.5386 101.684L51 86.4153L20.4614 101.685C19.5348 102.148 18.4349 102.098 17.554 101.554C16.673 101.009 16.1367 100.047 16.1367 99.0117V18.9258C16.1367 17.2755 17.4747 15.9375 19.125 15.9375H82.875C84.5253 15.9375 85.8633 17.2755 85.8633 18.9258V99.0117C85.8633 100.047 85.3272 101.009 84.446 101.554C83.9663 101.85 83.4213 102 82.8748 102Z" fill="#6BA7FF"/>
      <path d="M85.8633 99.0117V18.9258C85.8633 17.2755 84.5253 15.9375 82.875 15.9375H51V86.4153L81.5386 101.685C81.9604 101.896 82.4182 102 82.8748 102C83.4213 102 83.9663 101.85 84.446 101.554C85.3272 101.009 85.8633 100.047 85.8633 99.0117Z" fill="#2681FF"/>
      <path d="M9.16406 15.9375H3.1875C1.53717 15.9375 0.199219 14.5995 0.199219 12.9492C0.199219 11.2989 1.53717 9.96094 3.1875 9.96094H9.16406C10.8144 9.96094 12.1523 11.2989 12.1523 12.9492C12.1523 14.5995 10.8144 15.9375 9.16406 15.9375Z" fill="#BEDCEB"/>
      <path d="M9.16406 6.97266V18.9258C9.16406 20.5761 10.502 21.9141 12.1523 21.9141H89.8477C91.498 21.9141 92.8359 20.5761 92.8359 18.9258V6.97266C92.8359 5.32233 91.498 3.98438 89.8477 3.98438H12.1523C10.502 3.98438 9.16406 5.32233 9.16406 6.97266Z" fill="#2E6ADB"/>
      <path d="M51 73.9102C38.3673 73.9102 28.0898 63.6327 28.0898 51C28.0898 38.3673 38.3673 28.0898 51 28.0898C63.6327 28.0898 73.9102 38.3673 73.9102 51C73.9102 63.6327 63.6327 73.9102 51 73.9102Z" fill="#DCF0FF"/>
      <path d="M9.16406 25.8984C7.51373 25.8984 6.17578 24.5605 6.17578 22.9102V2.98828C6.17578 1.33795 7.51373 0 9.16406 0C10.8144 0 12.1523 1.33795 12.1523 2.98828V22.9102C12.1523 24.5605 10.8144 25.8984 9.16406 25.8984Z" fill="#DCF0FF"/>
      <path d="M89.8477 3.98438H51V21.9141H89.8477C91.498 21.9141 92.8359 20.5761 92.8359 18.9258V6.97266C92.8359 5.32233 91.498 3.98438 89.8477 3.98438Z" fill="#1E56C0"/>
      <path d="M73.9102 51C73.9102 38.3673 63.6327 28.0898 51 28.0898V73.9102C63.6327 73.9102 73.9102 63.6327 73.9102 51Z" fill="#BEDCEB"/>
      <path d="M98.8125 15.9375H92.8359C91.1856 15.9375 89.8477 14.5995 89.8477 12.9492C89.8477 11.2989 91.1856 9.96094 92.8359 9.96094H98.8125C100.463 9.96094 101.801 11.2989 101.801 12.9492C101.801 14.5995 100.463 15.9375 98.8125 15.9375Z" fill="#A5BFCE"/>
      <path d="M92.8359 25.8984C91.1856 25.8984 89.8477 24.5605 89.8477 22.9102V2.98828C89.8477 1.33795 91.1856 0 92.8359 0C94.4863 0 95.8242 1.33795 95.8242 2.98828V22.9102C95.8242 24.5605 94.4863 25.8984 92.8359 25.8984Z" fill="#BEDCEB"/>
      <path d="M57.1559 62.9741C56.6801 62.9741 56.203 62.8607 55.7655 62.6308L51 60.1254L46.2345 62.631C45.227 63.1601 44.0074 63.0721 43.0874 62.4035C42.1672 61.7349 41.7063 60.6018 41.8985 59.4807L42.8085 54.174L38.953 50.4159C38.1384 49.622 37.8452 48.4345 38.1968 47.3527C38.5482 46.2707 39.4834 45.4822 40.609 45.3189L45.9371 44.5445L48.3199 39.7164C48.8237 38.6964 49.8625 38.0508 51 38.0508C52.1375 38.0508 53.1763 38.6964 53.6797 39.7164L56.0625 44.5445L61.3907 45.3189C62.5162 45.4822 63.4516 46.2707 63.8028 47.3527C64.1544 48.4345 63.8612 49.622 63.0466 50.4159L59.1911 54.174L60.1011 59.4807C60.2934 60.6018 59.8324 61.7347 58.9122 62.4035C58.3922 62.7818 57.7754 62.9741 57.1559 62.9741Z" fill="#548AFF"/>
      <path d="M55.7655 62.631C56.2028 62.8607 56.6801 62.9742 57.1559 62.9742C57.7754 62.9742 58.3922 62.7818 58.9126 62.4037C59.8328 61.7351 60.2938 60.6019 60.1015 59.4809L59.1915 54.1742L63.047 50.4161C63.8616 49.6222 64.1548 48.4347 63.8032 47.3529C63.4518 46.2709 62.5166 45.4824 61.3911 45.3191L56.0629 44.5447L53.6801 39.7166C53.1763 38.6964 52.1375 38.0508 51 38.0508V60.1254L55.7655 62.631Z" fill="#2E6ADB"/>
    </g>
    <defs>
      <clipPath id="clip0">
        <rect width="102" height="102" fill="white"/>
      </clipPath>
    </defs>
  </symbol>

  <symbol id="rocket" viewBox="0 0 102 102">
    <g clip-path="url(#clip0)">
      <path fill-rule="evenodd" clip-rule="evenodd" d="M21.779 62.7323C15.2576 63.073 4.1111 66.7729 5.18748 74.5013C7.91001 94.1104 -13.5275 100.406 15.0016 100.406C29.3535 100.406 38.3996 94.1105 39.7669 80.8969L35.8925 65.9154L21.779 62.7323Z" fill="#9EC0FF"/>
      <path fill-rule="evenodd" clip-rule="evenodd" d="M26.9101 67.918C23.885 68.0765 18.7075 69.7914 19.2019 73.3855C20.4701 82.4942 10.5106 85.413 23.7628 85.413C30.4297 85.413 34.6358 82.4942 35.2699 76.3513L33.8039 68.9515L26.9101 67.918Z" fill="#C7DAFD"/>
      <path fill-rule="evenodd" clip-rule="evenodd" d="M33.4549 81.4724C29.5804 88.5255 21.8954 91.926 11.3483 91.926C7.21795 91.926 4.13464 91.7909 1.87749 91.509C-1.17116 97.9924 -2.65454 100.406 15.0016 100.406C29.3535 100.406 38.3997 94.1104 39.7669 80.8968L36.5091 77.6081L35.3978 76.4863C35.299 76.868 35.1942 77.238 35.0779 77.6081C34.7813 79.1174 34.2284 80.4036 33.4549 81.4724Z" fill="#679CFD"/>
      <path fill-rule="evenodd" clip-rule="evenodd" d="M32.2331 73.2917C30.8078 77.6963 26.9217 79.8046 21.2553 79.8046C20.1209 79.8046 19.1609 79.7871 18.3465 79.7401C16.6769 83.9215 14.2858 85.4132 23.7627 85.4132C28.1839 85.4132 31.5232 84.133 33.4547 81.4727C34.2284 80.4039 34.7811 79.1177 35.0777 77.6084C35.1592 77.2032 35.2231 76.7862 35.2697 76.3516L32.2331 73.2917Z" fill="#6BA7FF"/>
      <path fill-rule="evenodd" clip-rule="evenodd" d="M29.6675 51.9854L21.1622 56.9772C19.4519 57.9814 19.737 60.6711 21.0983 62.0513L21.779 62.7326L26.9101 67.9183L35.2699 76.3516L39.7669 80.8972L42.1113 83.2639C43.4783 84.6381 46.1429 84.92 47.1376 83.1993L52.0766 74.6074L46.4859 52.8547L29.6675 51.9854Z" fill="#2E6ADB"/>
      <path fill-rule="evenodd" clip-rule="evenodd" d="M98.5878 1.86124C94.498 1.10361 87.0459 1.8965 77.9705 4.99734L82.0544 20.1491L98.6402 25.8105C101.723 16.5903 102.497 9.0379 101.718 4.93877C101.264 2.54834 100.973 2.30171 98.5878 1.86124Z" fill="#2E6ADB"/>
      <path fill-rule="evenodd" clip-rule="evenodd" d="M51.8615 18.7277C40.5056 14.5873 31.7095 16.4726 22.7913 24.624C18.6551 28.641 11.7729 33.9205 17.4566 39.6582L24.5249 46.7936L44.8396 36.4341L51.8615 18.7277Z" fill="#2E6ADB"/>
      <path fill-rule="evenodd" clip-rule="evenodd" d="M85.0272 52.2024L65.9341 60.1717L57.2252 79.8044L64.2935 86.9398C69.9772 92.6775 75.2071 85.7299 79.1863 81.5545C83.3109 76.9503 90.6585 68.1823 85.0272 52.2024Z" fill="#2E6ADB"/>
      <path fill-rule="evenodd" clip-rule="evenodd" d="M98.6406 25.81C98.1625 27.2501 97.6226 28.7291 97.0295 30.239C94.3287 37.08 90.4149 44.615 85.0276 52.2017C78.2611 61.7275 69.1734 71.3416 57.2248 79.8054L55.8231 78.39L52.0776 74.608L41.9639 64.3981L40.872 63.297L39.78 62.1939L29.6683 51.9859L24.5253 46.7927C32.907 34.7318 42.4318 25.5572 51.8621 18.7288C61.0297 12.0974 70.1113 7.68068 77.9697 4.9978L98.6406 25.81Z" fill="#ECECEC"/>
      <path fill-rule="evenodd" clip-rule="evenodd" d="M76.7719 27.1787C71.2918 21.6466 62.2979 21.7639 56.6782 27.4371C51.0584 33.1102 50.9421 42.1894 56.4222 47.7215C61.9023 53.2536 70.8962 53.1363 76.516 47.4631C82.1357 41.79 82.2521 32.7108 76.7719 27.1787Z" fill="#6BA7FF"/>
      <path fill-rule="evenodd" clip-rule="evenodd" d="M97.302 1.68494C97.7035 5.98388 96.8018 12.9077 94.0385 21.1707L98.6402 25.8101C101.724 16.5899 102.497 9.0375 101.718 4.93838C101.264 2.54815 100.973 2.30152 98.5878 1.86105C98.1864 1.78475 97.7616 1.72617 97.302 1.68494Z" fill="#1E56C0"/>
      <path fill-rule="evenodd" clip-rule="evenodd" d="M92.4212 25.6047C89.7217 32.4465 85.8125 39.9754 80.4196 47.5688C78.0868 50.8517 75.4806 54.1462 72.5718 57.3998C69.6515 60.671 66.4343 63.8952 62.8914 67.0313C59.7324 69.8267 56.3175 72.5516 52.6292 75.165L55.8231 78.3891L57.2252 79.8044C69.1743 71.3418 78.2613 61.7281 85.0272 52.2024C90.4142 44.6148 94.3295 37.0801 97.0287 30.2383C97.6222 28.7291 98.163 27.2491 98.6402 25.8103L94.0384 21.1709C93.7358 22.0694 93.4159 22.9798 93.0668 23.9076C92.8632 24.4654 92.6481 25.0351 92.4212 25.6047Z" fill="#CECECE"/>
      <path fill-rule="evenodd" clip-rule="evenodd" d="M46.4744 68.9517L41.5353 77.5436C40.5406 79.2642 37.8761 78.9823 36.509 77.6081L39.7669 80.8968L42.1113 83.2635C43.4783 84.6377 46.1429 84.9196 47.1376 83.199L52.0766 74.6071L46.4744 68.9517Z" fill="#1E56C0"/>
      <path fill-rule="evenodd" clip-rule="evenodd" d="M71.577 23.8898C76.0215 29.4631 75.5853 37.7494 70.3263 43.0584C66.2598 47.1635 60.4191 48.3556 55.4275 46.6055C55.7359 46.9932 56.0674 47.3631 56.4224 47.7213C61.9025 53.2534 70.8964 53.1361 76.5162 47.4629C82.136 41.7898 82.2523 32.7106 76.7722 27.1785C75.2595 25.6517 73.4793 24.5534 71.577 23.8898Z" fill="#2681FF"/>
      <path fill-rule="evenodd" clip-rule="evenodd" d="M85.0272 52.2024C84.0906 53.5238 83.1073 54.8452 82.0835 56.1607C83.4099 67.36 77.8077 74.0081 74.3986 77.8136C71.1293 81.2373 67.0277 86.5288 62.5192 85.1486L64.2935 86.9398C69.9772 92.6775 75.2071 85.7299 79.1863 81.5545C83.3109 76.9503 90.6585 68.1823 85.0272 52.2024Z" fill="#1E56C0"/>
      <path fill-rule="evenodd" clip-rule="evenodd" d="M44.6651 16.8661C36.1774 23.2909 27.6894 31.6419 20.0861 42.3127L24.5249 46.7935C32.908 34.7308 42.4312 25.5576 51.8615 18.7276C49.3483 17.8118 46.9573 17.1892 44.6651 16.8661Z" fill="#1E56C0"/>
      <path d="M49.9021 56.3904L41.974 64.3898C41.9698 64.394 41.9678 64.396 41.9636 64.398L40.8717 63.2969L39.7798 62.1939L47.6997 54.2046C48.3032 53.5944 49.2861 53.5904 49.8937 54.1942C50.5013 54.8005 50.5055 55.7824 49.9021 56.3904Z" fill="#CECECE"/>
    </g>
    <defs>
      <clipPath id="clip0">
        <rect width="102" height="102" fill="white"/>
      </clipPath>
    </defs>
  </symbol>

  <symbol id="mail" viewBox="0 0 19 13" fill="none">
    <path d="M9.1005 9.0998L6.84879 7.12891L0.410889 12.6477C0.6449 12.8648 0.960815 13 1.30923 13H16.8918C17.2389 13 17.5535 12.8648 17.7862 12.6477L11.3522 7.12891L9.1005 9.0998Z" fill="#466BC8"/>
    <path d="M17.7902 0.352317C17.5562 0.133906 17.2416 0 16.8919 0H1.30932C0.9622 0 0.647585 0.135206 0.413574 0.354917L9.10059 7.80037L17.7902 0.352317Z" fill="#466BC8"/>
    <path d="M0 1.14111V11.942L6.2832 6.60267L0 1.14111Z" fill="#466BC8"/>
    <path d="M11.9177 6.60315L18.2009 11.9425V1.1377L11.9177 6.60315Z" fill="#466BC8"/>
  </symbol>

  <symbol id="phone" viewBox="0 0 16 16" fill="none">
    <path d="M15.6413 12.6266L13.1704 10.1554C12.6782 9.66521 11.8632 9.6801 11.3538 10.1896L10.109 11.4342C10.0303 11.3909 9.94891 11.3456 9.86332 11.2975C9.0772 10.862 8.00125 10.2649 6.86904 9.1319C5.73347 7.99647 5.1359 6.91887 4.69899 6.13224C4.65288 6.0489 4.60871 5.96855 4.56508 5.89224L5.40058 5.05799L5.81134 4.64672C6.32143 4.13649 6.3355 3.32168 5.84448 2.83007L3.37353 0.358561C2.88251 -0.132366 2.0671 -0.117473 1.55701 0.39276L0.860609 1.09316L0.879639 1.11205C0.646127 1.41001 0.450998 1.75366 0.305788 2.12424C0.171932 2.47699 0.0885943 2.81361 0.0504877 3.15091C-0.275786 5.85579 0.960265 8.32785 4.31475 11.6824C8.95166 16.319 12.6884 15.9687 12.8496 15.9516C13.2007 15.9096 13.5372 15.8257 13.8791 15.6929C14.2465 15.5494 14.5899 15.3546 14.8877 15.1216L14.9029 15.1351L15.6084 14.4443C16.1174 13.9341 16.1321 13.119 15.6413 12.6266Z" fill="#466BC8"/>
  </symbol>

  <symbol id="map-pin" viewBox="0 0 20 20" fill="none">
    <path d="M14.9534 2.05161C13.6305 0.728674 11.8714 0 10.0006 0C8.12945 0 6.37077 0.728674 5.04784 2.05161C2.59957 4.49952 2.29531 9.10532 4.38893 11.8958L10.0006 20L15.6039 11.9072C17.7059 9.10532 17.4017 4.49952 14.9534 2.05161ZM10.0653 9.4965C8.65578 9.4965 7.50853 8.34925 7.50853 6.93975C7.50853 5.53025 8.65578 4.383 10.0653 4.383C11.4748 4.383 12.622 5.53025 12.622 6.93975C12.622 8.34925 11.4748 9.4965 10.0653 9.4965Z" fill="#466BC8"/>
  </symbol>

  <symbol id="footer-fb" viewBox="0 0 20 20" fill="none">
    <path d="M14.9992 0.0043444L12.4056 0.000183105C9.49191 0.000183105 7.60892 1.93206 7.60892 4.92216V7.19152H5.00125C4.77592 7.19152 4.59344 7.3742 4.59344 7.59953V10.8876C4.59344 11.1129 4.77613 11.2954 5.00125 11.2954H7.60892V19.5922C7.60892 19.8175 7.7914 20 8.01673 20H11.419C11.6443 20 11.8268 19.8173 11.8268 19.5922V11.2954H14.8758C15.1011 11.2954 15.2836 11.1129 15.2836 10.8876L15.2848 7.59953C15.2848 7.49134 15.2418 7.38772 15.1654 7.31116C15.0891 7.23459 14.985 7.19152 14.8768 7.19152H11.8268V5.26775C11.8268 4.34312 12.0471 3.87372 13.2516 3.87372L14.9988 3.8731C15.2239 3.8731 15.4063 3.69042 15.4063 3.46529V0.412151C15.4063 0.187233 15.2241 0.00476053 14.9992 0.0043444Z" fill="#466BC8"/>
  </symbol>

  <symbol id="footer-inst" viewBox="0 0 20 20" fill="none">
    <path d="M5.7971 0H10H14.2029C15.2174 0 16.087 0.144928 16.6667 0.434783L16.6667 0.434791C17.2464 0.724643 17.8261 1.0145 18.4058 1.5942C18.9855 2.02899 19.2754 2.6087 19.5652 3.33333C19.7101 3.91304 20 4.78261 20 5.7971V10V14.2029C20 15.2174 19.8551 16.087 19.5652 16.6667C19.2754 17.2464 18.8406 17.8261 18.4058 18.4058C17.971 18.9855 17.3913 19.2754 16.6667 19.5652C16.087 19.7101 15.2174 20 14.2029 20H10H5.7971C4.78261 20 3.91305 19.8551 3.33334 19.5652C2.75363 19.2754 2.17392 18.8406 1.59421 18.4058C1.0145 17.971 0.724642 17.3913 0.434787 16.6667C0.289859 16.087 0 15.2174 0 14.2029V10V5.7971C0 4.78261 0.144932 3.91304 0.434787 3.33333L0.43479 3.33333C0.724644 2.75362 1.0145 2.17391 1.59421 1.5942C2.02899 1.01449 2.6087 0.724638 3.33334 0.434783C3.91305 0.289855 4.78261 0 5.7971 0Z" fill="#466BC8"/>
    <path fill-rule="evenodd" clip-rule="evenodd" d="M15.5066 5.94189C16.0863 5.94189 16.666 5.50711 16.666 4.78247C16.666 4.05783 16.0863 3.62305 15.5066 3.62305C14.9269 3.62305 14.3472 4.05783 14.3472 4.78247C14.3472 5.36218 14.9269 5.94189 15.5066 5.94189ZM6.66628 10.1447C6.66628 12.0288 8.11556 13.4781 9.99962 13.4781C11.8837 13.4781 13.333 12.0288 13.333 10.1447C13.333 8.26068 11.8837 6.8114 9.99962 6.8114C8.11556 6.8114 6.66628 8.26068 6.66628 10.1447ZM4.78223 10.1447C4.78223 7.24619 7.10106 4.92734 9.99962 4.92734C12.8982 4.92734 15.217 7.24619 15.217 10.1447C15.217 13.0433 12.8982 15.3621 9.99962 15.3621C7.10106 15.3621 4.78223 13.0433 4.78223 10.1447Z" fill="white"/>
  </symbol>

  <symbol id="burger" viewBox="0 0 32 32" fill="none">
    <path d="m256 0c-141.164062 0-256 114.835938-256 256s114.835938 256 256 256 256-114.835938 256-256-114.835938-256-256-256zm0 0" fill="#607d8b"/><g fill="#fafafa"><path d="m341.332031 362.667969h-170.664062c-11.777344 0-21.335938-9.558594-21.335938-21.335938 0-11.773437 9.558594-21.332031 21.335938-21.332031h170.664062c11.777344 0 21.335938 9.558594 21.335938 21.332031 0 11.777344-9.558594 21.335938-21.335938 21.335938zm0 0"/><path d="m341.332031 277.332031h-170.664062c-11.777344 0-21.335938-9.554687-21.335938-21.332031s9.558594-21.332031 21.335938-21.332031h170.664062c11.777344 0 21.335938 9.554687 21.335938 21.332031s-9.558594 21.332031-21.335938 21.332031zm0 0"/><path d="m341.332031 192h-170.664062c-11.777344 0-21.335938-9.558594-21.335938-21.332031 0-11.777344 9.558594-21.335938 21.335938-21.335938h170.664062c11.777344 0 21.335938 9.558594 21.335938 21.335938 0 11.773437-9.558594 21.332031-21.335938 21.332031zm0 0"/></g>
  </symbol>
</svg>
