<svg xmlns="http://www.w3.org/2000/svg" xmlns:xlink="http://www.w3.org/1999/xlink" viewBox="0 0 207.55 72.14"><defs><style>.cls-1{fill:url(#linear-gradient);}.cls-2{fill:url(#linear-gradient-2);}.cls-3{fill:url(#linear-gradient-3);}.cls-4{fill:url(#linear-gradient-4);}.cls-5{fill:url(#linear-gradient-5);}.cls-6{fill:url(#linear-gradient-6);}.cls-7{fill:url(#linear-gradient-7);}.cls-8{fill:url(#linear-gradient-8);}.cls-9{fill:url(#linear-gradient-9);}.cls-10{fill:url(#linear-gradient-10);}.cls-11{fill:url(#linear-gradient-11);}.cls-12{fill:url(#linear-gradient-12);}.cls-13{fill:url(#linear-gradient-13);}.cls-14{fill:url(#linear-gradient-14);}.cls-15{fill:url(#linear-gradient-15);}.cls-16{fill:url(#linear-gradient-16);}</style><linearGradient id="linear-gradient" x1="-1.53" y1="-13.36" x2="109.44" y2="36.37" gradientUnits="userSpaceOnUse"><stop offset="0.01" stop-color="#d9a85d"/><stop offset="0.23" stop-color="#f0cb7b"/><stop offset="0.51" stop-color="#bc802b"/><stop offset="0.77" stop-color="#f5d083"/><stop offset="1" stop-color="#d5a957"/></linearGradient><linearGradient id="linear-gradient-2" x1="-17.09" y1="20.46" x2="99.77" y2="72.84" xlink:href="#linear-gradient"/><linearGradient id="linear-gradient-3" x1="-12.39" y1="11.93" x2="99.73" y2="62.18" xlink:href="#linear-gradient"/><linearGradient id="linear-gradient-4" x1="-18.53" y1="34.16" x2="93.59" y2="84.4" xlink:href="#linear-gradient"/><linearGradient id="linear-gradient-5" x1="82.29" y1="13.14" x2="200.28" y2="62.43" xlink:href="#linear-gradient"/><linearGradient id="linear-gradient-6" x1="83.74" y1="9.66" x2="201.73" y2="58.95" xlink:href="#linear-gradient"/><linearGradient id="linear-gradient-7" x1="86.15" y1="3.89" x2="204.14" y2="53.18" xlink:href="#linear-gradient"/><linearGradient id="linear-gradient-8" x1="87.48" y1="0.72" x2="205.47" y2="50.01" xlink:href="#linear-gradient"/><linearGradient id="linear-gradient-9" x1="91.67" y1="-9.31" x2="209.66" y2="39.98" xlink:href="#linear-gradient"/><linearGradient id="linear-gradient-10" x1="71.55" y1="38.85" x2="189.54" y2="88.14" xlink:href="#linear-gradient"/><linearGradient id="linear-gradient-11" x1="74.6" y1="31.54" x2="192.59" y2="80.83" xlink:href="#linear-gradient"/><linearGradient id="linear-gradient-12" x1="76.59" y1="26.78" x2="194.58" y2="76.07" xlink:href="#linear-gradient"/><linearGradient id="linear-gradient-13" x1="80.28" y1="17.95" x2="198.27" y2="67.24" xlink:href="#linear-gradient"/><linearGradient id="linear-gradient-14" x1="84.06" y1="8.9" x2="202.05" y2="58.19" xlink:href="#linear-gradient"/><linearGradient id="linear-gradient-15" x1="83.43" y1="10.42" x2="201.42" y2="59.71" xlink:href="#linear-gradient"/><linearGradient id="linear-gradient-16" x1="84.68" y1="7.43" x2="202.67" y2="56.72" xlink:href="#linear-gradient"/></defs><g id="Layer_2" data-name="Layer 2"><g id="Layer_7" data-name="Layer 7"><polygon class="cls-1" points="78.74 0 78.74 9.93 44.61 9.93 44.61 21.55 32.85 21.55 32.85 9.93 0 9.93 0 0 78.74 0"/><rect class="cls-2" x="32.85" y="34.22" width="11.76" height="22.52"/><polygon class="cls-3" points="75.53 22.82 75.53 32.91 21.75 32.91 21.75 39.5 31.53 41.11 31.53 51.9 3.31 47.48 3.31 22.82 75.53 22.82"/><polygon class="cls-4" points="75.53 48.11 75.53 72.14 3.31 72.14 3.31 62.05 57.08 62.05 57.08 56.03 45.95 54.15 45.95 43.48 75.53 48.11"/><polygon class="cls-5" points="98.56 32.84 101.46 32.84 101.46 13.61 107.94 13.61 107.94 10.94 92.12 10.94 92.12 13.61 98.56 13.61 98.56 32.84"/><rect class="cls-6" x="111.58" y="10.94" width="2.9" height="21.9"/><polygon class="cls-7" points="133.93 10.94 118.12 10.94 118.12 13.61 124.56 13.61 124.56 32.84 127.46 32.84 127.46 13.61 133.93 13.61 133.93 10.94"/><path class="cls-8" d="M149.91,30.94l.87,1.91h3.06v-.07l-10.27-22h-.9l-10.28,22v.07h3.06l1.39-3,.06-.13,1.72-3.8h0l.92-2,2.14-4.67c.39-.86.88-2,1.46-3.51.55,1.44,1,2.61,1.44,3.51l2.33,5.07.73,1.6h0Z"/><path class="cls-9" d="M160,18.9c0-.78,0-1.56-.1-2.35.09.08.68.75,1.77,2L174.36,33h1.23V10.94h-2.9V24.57c0,.53,0,1.43.06,2.67l-.93-1.06c-.43-.5-.75-.86-1-1.1l-12.56-14.3h-1.16V32.85H160Z"/><path class="cls-10" d="M106.5,51.92a15.06,15.06,0,0,0-5-2.63c-.76-.26-1.36-.48-1.82-.68a9.07,9.07,0,0,1-1.49-.79,3.55,3.55,0,0,1-1.17-1.14,2.8,2.8,0,0,1-.39-1.48A2.45,2.45,0,0,1,97.89,43a5.31,5.31,0,0,1,2.93-.77A9.72,9.72,0,0,1,106.23,44l1.29-2.16a11.6,11.6,0,0,0-6.86-2.26,7.88,7.88,0,0,0-5,1.55,5.36,5.36,0,0,0-.22,8.2,14.56,14.56,0,0,0,4.81,2.56c.79.26,1.43.49,1.92.71a14,14,0,0,1,1.55.82A3.37,3.37,0,0,1,105,54.6a3.05,3.05,0,0,1,.39,1.55A3,3,0,0,1,104,58.74a5.45,5.45,0,0,1-3.25,1,9.24,9.24,0,0,1-6.28-2.32L93,59.66a11.82,11.82,0,0,0,7.77,2.68,8.33,8.33,0,0,0,5.36-1.71A5.57,5.57,0,0,0,108.29,56,5.13,5.13,0,0,0,106.5,51.92Z"/><polygon class="cls-11" points="109.97 42.69 116.41 42.69 116.41 61.92 119.31 61.92 119.31 42.69 125.78 42.69 125.78 40.01 109.97 40.01 109.97 42.69"/><path class="cls-12" d="M139.51,52.93a7,7,0,0,0,4.06-2.23,6,6,0,0,0,1.48-4.09A6.16,6.16,0,0,0,143,41.89,7.4,7.4,0,0,0,137.83,40h-8.4V61.92h2.89V53.16h4.13l5.66,8.76h3.36v-.1Zm-7.19-2.32v-8h5.38a4.47,4.47,0,0,1,3.19,1.14,3.79,3.79,0,0,1,1.22,2.89,3.72,3.72,0,0,1-1.18,2.9,4.79,4.79,0,0,1-3.29,1.06Z"/><path class="cls-13" d="M167.34,42.78a11.81,11.81,0,0,0-16.17,0A11.08,11.08,0,0,0,148,50.93,11.29,11.29,0,0,0,151.18,59a11.51,11.51,0,0,0,16.13,0,11.32,11.32,0,0,0,3.16-8.11A11.19,11.19,0,0,0,167.34,42.78Zm-2.11,14.35a8.32,8.32,0,0,1-11.95,0,8.83,8.83,0,0,1-2.3-6.2,8.75,8.75,0,0,1,2.28-6.23,8.61,8.61,0,0,1,12,0,8.75,8.75,0,0,1,2.28,6.23A8.83,8.83,0,0,1,165.23,57.13Z"/><path class="cls-14" d="M182.52,46.68a35.5,35.5,0,0,0-1.81,3.12,27.8,27.8,0,0,0-1.8-3.12L174.46,40h-3.35v.1l8.12,12.11v9.7h2.93v-9.7l8.12-12.11V40h-3.35Z"/><polygon class="cls-15" points="198.93 52.02 198.93 51.97 197.29 51.97 193.06 56.76 193.06 51.97 191.68 51.97 191.68 62.34 193.06 62.34 193.06 57.57 197.52 62.34 199.22 62.34 199.22 62.29 194.4 57.13 198.93 52.02"/><path class="cls-16" d="M203,61.07l-1,0,.62-1,4.85-7.75V52h-7.21v1.27h4.06l1.14,0-.37.57-.33.53L200,61.93v.41h7.57V61.07Z"/></g></g></svg>